# xmcd CD database file
#
# Track frame offsets:
#	150
#	45110
#	78185
#	92960
#	117560
#	127875
#
# Disc length: 2385 seconds
#
# Revision: 2
# Processed by: cddbd v1.5.1PL0 Copyright (c) Steve Scherf et al.
# Submitted via: CDex 1.51
#
DISCID=3f094f06
DTITLE=Dinah Washington - Dinah Jams
DYEAR=1954
DGENRE=Jazz
TTITLE0=Lover Come Back To Me
TTITLE1=Alone Together/Summertime/Come Rain Or Come Shine
TTITLE2=No More
TTITLE3=I've Got You Under My Skin
TTITLE4=There Is No Greater Love
TTITLE5=You Go To My Head
EXTD=Mercury PHCE-3053 (EmArcy]\n(Special Japanese 24-bit remastered edition]\n\nClifford Brown, Maynard Ferguson, Clark Terry, trumpets\nMax Roach, drums\nKeeter Betts, George Morrow, bass\nRichie Powell, Junior Mance, piano\nHarold Land, tenor sax\nHer
EXTD=b Gellar, alto sax\n\nRecorded August 14, 1954, Hollywood, Calif.\n YEAR: 1954
EXTT0=(O. Hammerstein II - S. Romberg)
EXTT1=Alone Together (H. Diets - A. Schwartz]\nSummertime (D. Heyward - G. Gershwin]\nCome Rain Or Come Shine (J. Mercer - H. Arlen)
EXTT2=(Bob Russell)
EXTT3=(Cole Porter)
EXTT4=(M. Symes - I. Jones)
EXTT5=(H. Gillespie - J. Fred Cooke)
PLAYORDER=
